<svg width="488.839" height="488.839" xmlns="http://www.w3.org/2000/svg">

 <g>
  <title>background</title>
  <rect fill="none" id="canvas_background" height="402" width="582" y="-1" x="-1"/>
 </g>
 <g>
  <title>Layer 1</title>
  <g id="svg_1">
   <g id="_x31_4_26_">
    <g id="svg_2">
     <path fill="#ffffff" id="svg_3" d="m264.32,39.487c5.529,-7.328 4.64,-22.871 3.853,-36.582c-0.03,-0.591 -0.063,-1.169 -0.096,-1.756c-7.75,-0.74 -15.595,-1.149 -23.535,-1.149c-30.425,0 -59.537,5.605 -86.406,15.766c19.167,9.211 48.836,25.065 81.814,48.49c11.252,-9.683 19.738,-18.622 24.37,-24.769z"/>
     <path fill="#ffffff" id="svg_4" d="m388.163,178.955c-12.047,1.361 -22.207,3.338 -30.896,6.111c41.537,72.522 57.732,164.145 61.695,230.522c41.15,-41.928 67.283,-98.609 69.754,-161.393c-28.354,-34.852 -65.916,-79.169 -100.553,-75.24z"/>
     <path fill="#ffffff" id="svg_5" d="m141.232,116.356c29.185,-6.073 56.604,-20.762 78.466,-36.267c-45.608,-31.412 -83.648,-47.714 -91.215,-50.817c-47.317,25.579 -85.181,66.334 -107.209,115.715c28.632,-11.408 59.641,-17.212 90.098,-22.867c9.853,-1.83 20.038,-3.721 29.86,-5.764z"/>
     <path fill="#ffffff" id="svg_6" d="m310.171,123.463c2.605,2.618 5.203,5.281 7.783,7.994c9.521,9.995 18.16,20.927 26.082,32.493c11.537,-4.356 25.119,-7.445 41.377,-9.283c38.307,-4.333 72.369,26.012 101.604,59.42c-6.268,-50.645 -27.989,-96.482 -60.354,-132.631c-17.666,2.129 -37.361,5.736 -57.435,11.726c-13.168,3.933 -34.139,14.619 -59.057,30.281z"/>
     <path fill="#ffffff" id="svg_7" d="m278.011,249.688c10.025,-33.955 21.637,-58.432 44.135,-74.32c-6.752,-9.693 -14.018,-18.79 -21.889,-27.054c-3.641,-3.824 -7.323,-7.517 -11.021,-11.145c-90.263,61.439 -213.906,174.3 -225.149,272.086c37.53,41.062 88.892,69.222 146.712,77.211c21.053,-41.915 40.868,-127.124 52.646,-177.801c5.659,-24.341 10.543,-45.358 14.566,-58.977z"/>
     <path fill="#ffffff" id="svg_8" d="m175.668,195.843c31.472,-29.001 64.708,-55.007 95.107,-75.908c-10.133,-8.965 -20.297,-17.229 -30.275,-24.808c-25.249,18.98 -58.307,37.674 -94.291,45.158c-10.077,2.097 -20.396,4.014 -30.372,5.866c-38.438,7.138 -75.336,14.051 -106.366,31.364c-6.043,21.271 -9.348,43.697 -9.348,66.905c0,51.917 16.238,100.02 43.839,139.604c17.881,-70.797 79.213,-139.81 131.706,-188.181z"/>
     <path fill="#ffffff" id="svg_9" d="m291.829,105.975c29.078,-18.538 54.147,-31.356 70.412,-36.211c14.606,-4.362 28.934,-7.539 42.502,-9.856c-31.353,-27.245 -69.678,-46.663 -111.986,-55.127c0.938,17.07 1.347,35.811 -8.922,49.427c-4.879,6.466 -13.133,15.334 -23.873,24.955c10.518,8.187 21.207,17.115 31.867,26.812z"/>
     <path fill="#ffffff" id="svg_10" d="m301.45,256.609c-3.816,12.928 -8.63,33.625 -14.199,57.588c-16.444,70.755 -32.179,134.067 -50.555,174.442c2.609,0.083 5.217,0.199 7.846,0.199c56.963,0 109.328,-19.539 150.885,-52.206c-1.641,-69.461 -18.293,-167.71 -60.238,-240.643c-16.268,12.091 -25.024,31.112 -33.739,60.62z"/>
    </g>
   </g>
  </g>
  <g id="svg_11"/>
  <g id="svg_12"/>
  <g id="svg_13"/>
  <g id="svg_14"/>
  <g id="svg_15"/>
  <g id="svg_16"/>
  <g id="svg_17"/>
  <g id="svg_18"/>
  <g id="svg_19"/>
  <g id="svg_20"/>
  <g id="svg_21"/>
  <g id="svg_22"/>
  <g id="svg_23"/>
  <g id="svg_24"/>
  <g id="svg_25"/>
 </g>
</svg>